ModelForces
version=1
nRows=4
nColumns=155
inDegrees=no

This file contains the forces exerted on a model during a simulation.

A force is a generalized force, meaning that it can be either a force (N) or a torque (Nm).

Units are S.I. units (second, meters, Newtons, ...)
Angles are in degrees.

endheader
time	glut_med1_r	glut_med2_r	glut_med3_r	glut_min1_r	glut_min2_r	glut_min3_r	semimem_r	semiten_r	bifemlh_r	bifemsh_r	sar_r	add_long_r	add_brev_r	add_mag1_r	add_mag2_r	add_mag3_r	tfl_r	pect_r	grac_r	glut_max1_r	glut_max2_r	glut_max3_r	iliacus_r	psoas_r	quad_fem_r	gem_r	peri_r	rect_fem_r	vas_med_r	vas_int_r	vas_lat_r	med_gas_r	lat_gas_r	soleus_r	tib_post_r	flex_dig_r	flex_hal_r	tib_ant_r	per_brev_r	per_long_r	per_tert_r	ext_dig_r	ext_hal_r	glut_med1_l	glut_med2_l	glut_med3_l	glut_min1_l	glut_min2_l	glut_min3_l	semimem_l	semiten_l	bifemlh_l	bifemsh_l	sar_l	add_long_l	add_brev_l	add_mag1_l	add_mag2_l	add_mag3_l	tfl_l	pect_l	grac_l	glut_max1_l	glut_max2_l	glut_max3_l	iliacus_l	psoas_l	quad_fem_l	gem_l	peri_l	rect_fem_l	vas_med_l	vas_int_l	vas_lat_l	med_gas_l	lat_gas_l	soleus_l	tib_post_l	flex_dig_l	flex_hal_l	tib_ant_l	per_brev_l	per_long_l	per_tert_l	ext_dig_l	ext_hal_l	ercspn_r	ercspn_l	intobl_r	intobl_l	extobl_r	extobl_l	femur_lat_meniscii_r.femur_lat_r.force.X	femur_lat_meniscii_r.femur_lat_r.force.Y	femur_lat_meniscii_r.femur_lat_r.force.Z	femur_lat_meniscii_r.femur_lat_r.torque.X	femur_lat_meniscii_r.femur_lat_r.torque.Y	femur_lat_meniscii_r.femur_lat_r.torque.Z	femur_lat_meniscii_r.meniscus_lat_r.force.X	femur_lat_meniscii_r.meniscus_lat_r.force.Y	femur_lat_meniscii_r.meniscus_lat_r.force.Z	femur_lat_meniscii_r.meniscus_lat_r.torque.X	femur_lat_meniscii_r.meniscus_lat_r.torque.Y	femur_lat_meniscii_r.meniscus_lat_r.torque.Z	femur_med_meniscii_r.femur_med_r.force.X	femur_med_meniscii_r.femur_med_r.force.Y	femur_med_meniscii_r.femur_med_r.force.Z	femur_med_meniscii_r.femur_med_r.torque.X	femur_med_meniscii_r.femur_med_r.torque.Y	femur_med_meniscii_r.femur_med_r.torque.Z	femur_med_meniscii_r.meniscus_med_r.force.X	femur_med_meniscii_r.meniscus_med_r.force.Y	femur_med_meniscii_r.meniscus_med_r.force.Z	femur_med_meniscii_r.meniscus_med_r.torque.X	femur_med_meniscii_r.meniscus_med_r.torque.Y	femur_med_meniscii_r.meniscus_med_r.torque.Z	femur_med_tibia_r.tibia_upper_r.force.X	femur_med_tibia_r.tibia_upper_r.force.Y	femur_med_tibia_r.tibia_upper_r.force.Z	femur_med_tibia_r.tibia_upper_r.torque.X	femur_med_tibia_r.tibia_upper_r.torque.Y	femur_med_tibia_r.tibia_upper_r.torque.Z	femur_med_tibia_r.femur_med_r.force.X	femur_med_tibia_r.femur_med_r.force.Y	femur_med_tibia_r.femur_med_r.force.Z	femur_med_tibia_r.femur_med_r.torque.X	femur_med_tibia_r.femur_med_r.torque.Y	femur_med_tibia_r.femur_med_r.torque.Z	femur_lat_tibia_r.tibia_upper_r.force.X	femur_lat_tibia_r.tibia_upper_r.force.Y	femur_lat_tibia_r.tibia_upper_r.force.Z	femur_lat_tibia_r.tibia_upper_r.torque.X	femur_lat_tibia_r.tibia_upper_r.torque.Y	femur_lat_tibia_r.tibia_upper_r.torque.Z	femur_lat_tibia_r.femur_lat_r.force.X	femur_lat_tibia_r.femur_lat_r.force.Y	femur_lat_tibia_r.femur_lat_r.force.Z	femur_lat_tibia_r.femur_lat_r.torque.X	femur_lat_tibia_r.femur_lat_r.torque.Y	femur_lat_tibia_r.femur_lat_r.torque.Z	aACL_R	pACL_R	aPCL_R	pPCL_R	aMCL_R	mMCL_R	pMCL_R	aLCL_R	mLCL_R	pLCL_R	aPCL_L	pPCL_L	aMCL_L	aLCL_L
      0.14110074	     12.58251937	      9.32027922	     10.03736561	      4.28415734	      4.95112580	      5.44748727	     84.85409585	    152.04726014	    222.01814585	    364.83052509	    120.16319119	      9.28765191	      6.64281866	      0.00000000	      4.07110888	      6.91748621	      4.49927610	      3.61892582	     91.76619802	      6.02102667	      9.16168186	      6.89624387	     29.34807632	     20.58335680	      5.90461416	      3.95342715	      6.33772400	     41.56481802	     31.08201249	     33.99514628	     47.56944014	      0.00000000	      0.00000000	      0.00000000	      0.00000000	      0.00000000	      0.00000000	     31.61218859	      0.75869545	      0.00000000	     18.43647235	     25.10113867	      7.10157315	     12.58251937	      9.32027922	     10.03736561	      4.28415734	      4.95112580	      5.44748727	      0.00000000	      6.95304933	     13.55016158	     11.75402988	      2.44323501	      9.28765191	      6.64281866	      0.00000000	      4.07110888	      6.91748621	      5.90579262	      3.61892582	      2.52685534	      6.02102667	      9.16168186	      6.89624387	     29.34807632	     20.58335680	      5.90461416	      3.95342715	      6.33772400	     19.24280173	      0.00000000	      0.00000000	      0.00000000	     21.29307433	     10.17098059	     55.22896408	     53.67406930	      5.96363978	      5.31972296	     14.80417430	      7.98573081	     19.77341564	      3.18116304	     10.35352082	      3.27288769	     40.33494292	     40.33494292	     15.11216967	     15.11216967	     32.32708944	     32.32708944	    -18.21526447	    176.99952802	     23.36768872	    -13.71112256	     -0.34144006	     -8.42859484	     18.21526447	   -176.99952802	    -23.36768872	      5.11433253	     -0.05850646	      4.75675293	     19.64085792	     39.27098148	      0.93329161	      0.40664861	     -0.36752919	      7.64909590	    -19.64085792	    -39.27098148	     -0.93329161	     -0.67420742	      0.30361538	      0.67096461	    -19.14910440	   -475.74199790	     94.49937047	     -9.29504097	      2.51325185	     10.97639544	     19.14910440	    475.74199790	    -94.49937047	     46.86507957	     -0.76755382	      5.42513669	     24.60876495	   -369.23463848	    -73.21279906	     11.25012747	     -1.12203198	      9.46100983	    -24.60876495	    369.23463848	     73.21279906	    -38.62072116	     -0.20743413	    -11.95608683	     51.93441655	     -5.63098551	      0.00000000	      0.00000000	      0.00000000	      0.00000000	      0.00000000	      0.00000000	      0.00000000	      0.00000000	      0.00000000	      0.00000000	      0.00000001	      0.00000000
      0.14154815	     12.56285617	      9.29863351	     10.01379116	      4.27460251	      4.94064005	      5.43429136	     83.97079628	    151.62335863	    220.81537507	    364.24472291	    120.05013113	      9.26584192	      6.62814018	      0.00000000	      4.06156834	      6.90012481	      4.50378891	      3.61079844	     91.59138293	      6.00697176	      9.14025166	      6.87988396	     29.30797978	     20.53762206	      5.89116920	      3.94679938	      6.34058116	     41.71509857	     31.03315643	     33.95102538	     47.50614796	      0.00000000	      0.00000000	      0.00000000	      0.00000000	      0.00000000	      0.00000000	     31.74661115	      0.76268558	      0.00000000	     16.92425231	     25.29759705	      7.15677845	     12.56285617	      9.29863351	     10.01379116	      4.27460251	      4.94064005	      5.43429136	      0.00000000	      6.93596997	     13.52417915	     11.72722109	      2.43781117	      9.26584192	      6.62814018	      0.00000000	      4.06156834	      6.90012481	      5.89518123	      3.61079844	      2.52114864	      6.00697176	      9.14025166	      6.87988396	     29.30797978	     20.53762206	      5.89116920	      3.94679938	      6.34058116	     19.19396290	      0.00000000	      0.00000000	      0.00000000	     21.30446695	     10.17220816	     55.15279418	     53.61827516	      5.95196910	      5.30945324	     14.77199236	      7.96654832	     19.74202851	      3.17412485	     10.31608490	      3.25991946	     40.24478750	     40.24478750	     15.07582119	     15.07582119	     32.29396286	     32.29396286	    -18.15214722	    176.87717879	     23.61925416	    -13.81269985	     -0.34133473	     -8.41644423	     18.15214722	   -176.87717879	    -23.61925416	      5.11620361	     -0.06459035	      4.77275601	     19.21519495	     37.74147068	      0.81055466	      0.42587251	     -0.35920164	      7.48727719	    -19.21519495	    -37.74147068	     -0.81055466	     -0.65014035	      0.29881046	      0.64123384	    -19.57123225	   -474.08446077	     95.05793036	     -9.27536442	      2.53725722	     10.95107641	     19.57123225	    474.08446077	    -95.05793036	     47.05271445	     -0.77831434	      5.59921847	     24.23207244	   -366.23487237	    -72.81816641	     11.15623582	     -1.12766377	      9.41199213	    -24.23207244	    366.23487237	     72.81816641	    -38.38693478	     -0.19811722	    -11.80574967	     50.49952223	     -6.43749213	      0.00000000	      0.00000000	      0.00000000	      0.00000000	      0.00000000	      0.00000000	      0.00000000	      0.00000000	      0.00000000	      0.00000000	      0.00000001	      0.00000000
      0.14190612	     12.54694438	      9.28140932	      9.99503225	      4.26699901	      4.93229618	      5.42378483	     83.25541525	    151.28606182	    219.86590600	    363.76791167	    119.95888286	      9.24848728	      6.61645920	      0.00000000	      4.05397333	      6.88630818	      4.50765312	      3.60433075	     91.45161339	      5.99578810	      9.12319949	      6.86686631	     29.27607683	     20.50123281	      5.88047004	      3.94152605	      6.34261906	     41.83567980	     30.99777469	     33.91778716	     47.45653421	      0.00000000	      0.00000000	      0.00000000	      0.00000000	      0.00000000	      0.00000000	     31.85540557	      0.76558320	      0.00000000	     16.55526116	     25.45613193	      7.20153256	     12.54694438	      9.28140932	      9.99503225	      4.26699901	      4.93229618	      5.42378483	      0.00000000	      6.92237966	     13.50336028	     11.70588814	      2.43349498	      9.24848728	      6.61645920	      0.00000000	      4.05397333	      6.88630818	      5.88673461	      3.60433075	      2.51660748	      5.99578810	      9.12319949	      6.86686631	     29.27607683	     20.50123281	      5.88047004	      3.94152605	      6.34261906	     19.15506939	      0.00000000	      0.00000000	      0.00000000	     21.31295067	     10.17294051	     55.09143041	     53.57372280	      5.94275902	      5.30137574	     14.74627521	      7.95124837	     19.71691341	      3.16852472	     10.28629687	      3.24962380	     40.17304423	     40.17304423	     15.04689819	     15.04689819	     32.26760636	     32.26760636	    -18.00366820	    177.18661595	     23.78593343	    -13.88953209	     -0.33543421	     -8.36345779	     18.00366820	   -177.18661595	    -23.78593343	      5.12755232	     -0.07484595	      4.78774681	     18.75026584	     36.70510626	      0.70373036	      0.44980925	     -0.35003680	      7.30557513	    -18.75026584	    -36.70510626	     -0.70373036	     -0.63565002	      0.29291844	      0.62516080	    -19.13043171	   -472.83145666	     95.37528933	     -9.25669920	      2.54388455	     10.95939136	     19.13043171	    472.83145666	    -95.37528933	     47.15011734	     -0.77500193	      5.41068529	     23.27588341	   -363.48573876	    -72.22355631	     11.06260723	     -1.14339638	      9.34140179	    -23.27588341	    363.48573876	     72.22355631	    -38.07456085	     -0.17559946	    -11.40846845	     49.31279079	     -7.10348953	      0.00000000	      0.00000000	      0.00000000	      0.00000000	      0.00000000	      0.00000000	      0.00000000	      0.00000000	      0.00000000	      0.00000000	      0.00000001	      0.00000000
      0.14236508	     12.52632232	      9.25944798	      9.97111419	      4.25730380	      4.92165750	      5.41038106	     82.32400165	    150.85219939	    218.65600576	    363.12501816	    119.83896014	      9.22636000	      6.60156456	      0.00000000	      4.04428545	      6.86868960	      4.51287705	      3.59608367	     91.27037802	      5.98152900	      9.10145819	      6.85026906	     29.23540378	     20.45483987	      5.86682762	      3.93480321	      6.34491684	     41.98887374	     30.94235979	     33.86737426	     47.38460349	      0.00000000	      0.00000000	      0.00000000	      0.00000000	      0.00000000	      0.00000000	     31.99437211	      0.76893305	      0.00000000	     18.11236774	     25.66147093	      7.25943188	     12.52632232	      9.25944798	      9.97111419	      4.25730380	      4.92165750	      5.41038106	      0.00000000	      6.90505203	     13.47663245	     11.67868759	      2.42799135	      9.22636000	      6.60156456	      0.00000000	      4.04428545	      6.86868960	      5.87596140	      3.59608367	      2.51081718	      5.98152900	      9.10145819	      6.85026906	     29.23540378	     20.45483987	      5.86682762	      3.93480321	      6.34491684	     19.10543992	      0.00000000	      0.00000000	      0.00000000	     21.32302160	     10.17356068	     55.01222243	     53.51671934	      5.93110971	      5.29119253	     14.71334714	      7.93169495	     19.68471256	      3.16138487	     10.24832792	      3.23652995	     40.08156483	     40.08156483	     15.01002144	     15.01002144	     32.23400548	     32.23400548	    -17.59742827	    177.37946386	     23.94695042	    -13.96045157	     -0.32372608	     -8.20624259	     17.59742827	   -177.37946386	    -23.94695042	      5.13434888	     -0.09162908	      4.79698871	     18.11631008	     35.24311199	      0.60500247	      0.46043748	     -0.33796262	      7.05825048	    -18.11631008	    -35.24311199	     -0.60500247	     -0.61203851	      0.28439753	      0.60163874	    -18.94637482	   -471.00010125	     95.83063926	     -9.23128633	      2.55830663	     10.95024502	     18.94637482	    471.00010125	    -95.83063926	     47.29167005	     -0.77669323	      5.33104457	     23.31591092	   -360.03879889	    -71.26567103	     10.93798661	     -1.12875791	      9.29668613	    -23.31591092	    360.03879889	     71.26567103	    -37.59377977	     -0.17475167	    -11.43221747	     47.71389381	     -8.01032530	      0.00000000	      0.00000000	      0.00000000	      0.00000000	      0.00000000	      0.00000000	      0.00000000	      0.00000000	      0.00000000	      0.00000000	      0.00000001	      0.00000000
